<?xml version="1.0" encoding="UTF-8"?>
<!DOCTYPE svg PUBLIC "-//W3C//DTD SVG 1.1//EN" "http://www.w3.org/Graphics/SVG/1.1/DTD/svg11.dtd">
<!-- Creator: CorelDRAW X7 -->
<svg xmlns="http://www.w3.org/2000/svg" xml:space="preserve" width="100%" height="100%" version="1.1" style="shape-rendering:geometricPrecision; text-rendering:geometricPrecision; image-rendering:optimizeQuality; fill-rule:evenodd; clip-rule:evenodd"
viewBox="0 0 4776 1256"
 xmlns:xlink="http://www.w3.org/1999/xlink">
 <defs>
  <style type="text/css">
   <![CDATA[
    .fil3 {fill:#EEFEFE}
    .fil1 {fill:#AE0000}
    .fil0 {fill:#AE0000}
    .fil2 {fill:#AE0000}
   ]]>
  </style>
 </defs>
 <g id="Layer_x0020_1">
  <metadata id="CorelCorpID_0Corel-Layer"/>
  <g id="_867519129936">
   <path class="fil0" d="M3391 387l0 97 -193 0 0 557 116 118 77 0 0 97 -116 0 -174 -174 0 -598 -95 0 0 -97 95 0 0 -193 97 0 0 193 193 0zm425 0l0 310 -172 172 -118 0 0 172 118 118 77 0 0 -193 95 0 0 290 -213 0 -172 -174 0 -523 172 -172 213 0zm-95 269l0 -172 -77 0 -118 116 0 172 77 0 118 -116zm575 -269l0 290 -95 0 0 -193 -77 0 -117 116 0 441 117 118 77 0 0 -193 95 0 0 290 -213 0 -172 -174 0 -523 172 -172 213 0zm480 172l0 697 -95 0 0 -656 -117 -116 -77 0 0 772 -96 0 0 -1256 96 0 0 387 117 0 172 172z"/>
   <path class="fil1" d="M290 387l95 0 0 600 -270 269 -115 0 0 -869 95 0 0 751 195 -192 0 -559zm575 0l0 310 -172 172 -118 0 0 172 118 118 77 0 0 -193 95 0 0 290 -213 0 -172 -174 0 -523 172 -172 213 0zm-95 269l0 -172 -77 0 -118 116 0 172 77 0 118 -116zm575 -269l0 290 -95 0 0 -193 -77 0 -118 116 0 441 118 118 77 0 0 -193 95 0 0 290 -213 0 -172 -174 0 -523 172 -172 213 0zm480 0l0 97 -192 0 0 557 115 118 77 0 0 97 -115 0 -174 -174 0 -598 -96 0 0 -97 96 0 0 -193 97 0 0 193 192 0zm480 0l0 695 -172 174 -213 0 0 -697 173 -172 212 0zm-95 654l0 -557 -77 0 -117 116 0 559 77 0 117 -118zm575 -654l0 290 -95 0 0 -193 -77 0 -117 116 0 656 -95 0 0 -697 172 -172 212 0z"/>
   <path class="fil2" d="M3391 387l0 97 -193 0 0 557 116 118 77 0 0 97 -116 0 -174 -174 0 -598 -95 0 0 -97 95 0 0 -193 97 0 0 193 193 0zm425 0l0 310 -172 172 -118 0 0 172 118 118 77 0 0 -193 95 0 0 290 -213 0 -172 -174 0 -523 172 -172 213 0zm-95 269l0 -172 -77 0 -118 116 0 172 77 0 118 -116zm575 -269l0 290 -95 0 0 -193 -77 0 -117 116 0 441 117 118 77 0 0 -193 95 0 0 290 -213 0 -172 -174 0 -523 172 -172 213 0zm480 172l0 697 -95 0 0 -656 -117 -116 -77 0 0 772 -96 0 0 -1256 96 0 0 387 117 0 172 172z"/>
   <path class="fil3" d="M290 387l95 0 0 600 -270 269 -115 0 0 -869 95 0 0 751 195 -192 0 -559zm575 0l0 310 -172 172 -118 0 0 172 118 118 77 0 0 -193 95 0 0 290 -213 0 -172 -174 0 -523 172 -172 213 0zm-95 269l0 -172 -77 0 -118 116 0 172 77 0 118 -116zm575 -269l0 290 -95 0 0 -193 -77 0 -118 116 0 441 118 118 77 0 0 -193 95 0 0 290 -213 0 -172 -174 0 -523 172 -172 213 0zm480 0l0 97 -192 0 0 557 115 118 77 0 0 97 -115 0 -174 -174 0 -598 -96 0 0 -97 96 0 0 -193 97 0 0 193 192 0zm480 0l0 695 -172 174 -213 0 0 -697 173 -172 212 0zm-95 654l0 -557 -77 0 -117 116 0 559 77 0 117 -118zm575 -654l0 290 -95 0 0 -193 -77 0 -117 116 0 656 -95 0 0 -697 172 -172 212 0z"/>
  </g>
 </g>
</svg>
